<svg id="visual" viewBox="0 0 1980 1080" width="1980" height="1080" xmlns="http://www.w3.org/2000/svg" xmlns:xlink="http://www.w3.org/1999/xlink" version="1.1"><rect x="0" y="0" width="1980" height="1080" fill="#ffffff"></rect><defs><linearGradient id="grad1_0" x1="45.5%" y1="0%" x2="100%" y2="100%"><stop offset="13.333333333333334%" stop-color="#4985de" stop-opacity="1"></stop><stop offset="86.66666666666667%" stop-color="#4985de" stop-opacity="1"></stop></linearGradient></defs><defs><linearGradient id="grad1_1" x1="45.5%" y1="0%" x2="100%" y2="100%"><stop offset="13.333333333333334%" stop-color="#4985de" stop-opacity="1"></stop><stop offset="86.66666666666667%" stop-color="#81a2e7" stop-opacity="1"></stop></linearGradient></defs><defs><linearGradient id="grad1_2" x1="45.5%" y1="0%" x2="100%" y2="100%"><stop offset="13.333333333333334%" stop-color="#aec0ef" stop-opacity="1"></stop><stop offset="86.66666666666667%" stop-color="#81a2e7" stop-opacity="1"></stop></linearGradient></defs><defs><linearGradient id="grad1_3" x1="45.5%" y1="0%" x2="100%" y2="100%"><stop offset="13.333333333333334%" stop-color="#aec0ef" stop-opacity="1"></stop><stop offset="86.66666666666667%" stop-color="#d7dff7" stop-opacity="1"></stop></linearGradient></defs><defs><linearGradient id="grad1_4" x1="45.5%" y1="0%" x2="100%" y2="100%"><stop offset="13.333333333333334%" stop-color="#ffffff" stop-opacity="1"></stop><stop offset="86.66666666666667%" stop-color="#d7dff7" stop-opacity="1"></stop></linearGradient></defs><defs><linearGradient id="grad2_0" x1="0%" y1="0%" x2="54.5%" y2="100%"><stop offset="13.333333333333334%" stop-color="#4985de" stop-opacity="1"></stop><stop offset="86.66666666666667%" stop-color="#4985de" stop-opacity="1"></stop></linearGradient></defs><defs><linearGradient id="grad2_1" x1="0%" y1="0%" x2="54.5%" y2="100%"><stop offset="13.333333333333334%" stop-color="#81a2e7" stop-opacity="1"></stop><stop offset="86.66666666666667%" stop-color="#4985de" stop-opacity="1"></stop></linearGradient></defs><defs><linearGradient id="grad2_2" x1="0%" y1="0%" x2="54.5%" y2="100%"><stop offset="13.333333333333334%" stop-color="#81a2e7" stop-opacity="1"></stop><stop offset="86.66666666666667%" stop-color="#aec0ef" stop-opacity="1"></stop></linearGradient></defs><defs><linearGradient id="grad2_3" x1="0%" y1="0%" x2="54.5%" y2="100%"><stop offset="13.333333333333334%" stop-color="#d7dff7" stop-opacity="1"></stop><stop offset="86.66666666666667%" stop-color="#aec0ef" stop-opacity="1"></stop></linearGradient></defs><defs><linearGradient id="grad2_4" x1="0%" y1="0%" x2="54.5%" y2="100%"><stop offset="13.333333333333334%" stop-color="#d7dff7" stop-opacity="1"></stop><stop offset="86.66666666666667%" stop-color="#ffffff" stop-opacity="1"></stop></linearGradient></defs><g transform="translate(1980, 0)"><path d="M0 972C-142.2 900 -284.3 828 -436.5 756C-588.7 684 -750.9 612 -841.8 486C-932.7 360 -952.3 180 -972 0L0 0Z" fill="#ebeffb"></path><path d="M0 777.6C-113.7 720 -227.5 662.4 -349.2 604.8C-470.9 547.2 -600.7 489.6 -673.4 388.8C-746.2 288 -761.9 144 -777.6 0L0 0Z" fill="#c3cff3"></path><path d="M0 583.2C-85.3 540 -170.6 496.8 -261.9 453.6C-353.2 410.4 -450.5 367.2 -505.1 291.6C-559.6 216 -571.4 108 -583.2 0L0 0Z" fill="#99b1eb"></path><path d="M0 388.8C-56.9 360 -113.7 331.2 -174.6 302.4C-235.5 273.6 -300.3 244.8 -336.7 194.4C-373.1 144 -380.9 72 -388.8 0L0 0Z" fill="#6893e2"></path><path d="M0 194.4C-28.4 180 -56.9 165.6 -87.3 151.2C-117.7 136.8 -150.2 122.4 -168.4 97.2C-186.5 72 -190.5 36 -194.4 0L0 0Z" fill="#4985de"></path></g><g transform="translate(0, 1080)"><path d="M0 -972C147.5 -909.3 295 -846.5 446.5 -773.4C598 -700.2 753.5 -616.6 841.8 -486C930 -355.4 951 -177.7 972 0L0 0Z" fill="#ebeffb"></path><path d="M0 -777.6C118 -727.4 236 -677.2 357.2 -618.7C478.4 -560.2 602.8 -493.3 673.4 -388.8C744 -284.3 760.8 -142.1 777.6 0L0 0Z" fill="#c3cff3"></path><path d="M0 -583.2C88.5 -545.6 177 -507.9 267.9 -464C358.8 -420.1 452.1 -370 505.1 -291.6C558 -213.2 570.6 -106.6 583.2 0L0 0Z" fill="#99b1eb"></path><path d="M0 -388.8C59 -363.7 118 -338.6 178.6 -309.3C239.2 -280.1 301.4 -246.7 336.7 -194.4C372 -142.1 380.4 -71.1 388.8 0L0 0Z" fill="#6893e2"></path><path d="M0 -194.4C29.5 -181.9 59 -169.3 89.3 -154.7C119.6 -140 150.7 -123.3 168.4 -97.2C186 -71.1 190.2 -35.5 194.4 0L0 0Z" fill="#4985de"></path></g></svg>