<svg id="visual" viewBox="0 0 1800 1080" width="1800" height="1080" xmlns="http://www.w3.org/2000/svg" xmlns:xlink="http://www.w3.org/1999/xlink" version="1.1"><rect x="0" y="0" width="1800" height="1080" fill="#ffffff"></rect><defs><linearGradient id="grad1_0" x1="40%" y1="0%" x2="100%" y2="100%"><stop offset="16.666666666666664%" stop-color="#155dfc" stop-opacity="1"></stop><stop offset="83.33333333333334%" stop-color="#155dfc" stop-opacity="1"></stop></linearGradient></defs><defs><linearGradient id="grad1_1" x1="40%" y1="0%" x2="100%" y2="100%"><stop offset="16.666666666666664%" stop-color="#155dfc" stop-opacity="1"></stop><stop offset="83.33333333333334%" stop-color="#6475fe" stop-opacity="1"></stop></linearGradient></defs><defs><linearGradient id="grad1_2" x1="40%" y1="0%" x2="100%" y2="100%"><stop offset="16.666666666666664%" stop-color="#8c8fff" stop-opacity="1"></stop><stop offset="83.33333333333334%" stop-color="#6475fe" stop-opacity="1"></stop></linearGradient></defs><defs><linearGradient id="grad1_3" x1="40%" y1="0%" x2="100%" y2="100%"><stop offset="16.666666666666664%" stop-color="#8c8fff" stop-opacity="1"></stop><stop offset="83.33333333333334%" stop-color="#adaaff" stop-opacity="1"></stop></linearGradient></defs><defs><linearGradient id="grad1_4" x1="40%" y1="0%" x2="100%" y2="100%"><stop offset="16.666666666666664%" stop-color="#cac6ff" stop-opacity="1"></stop><stop offset="83.33333333333334%" stop-color="#adaaff" stop-opacity="1"></stop></linearGradient></defs><defs><linearGradient id="grad1_5" x1="40%" y1="0%" x2="100%" y2="100%"><stop offset="16.666666666666664%" stop-color="#cac6ff" stop-opacity="1"></stop><stop offset="83.33333333333334%" stop-color="#e5e2ff" stop-opacity="1"></stop></linearGradient></defs><defs><linearGradient id="grad1_6" x1="40%" y1="0%" x2="100%" y2="100%"><stop offset="16.666666666666664%" stop-color="#ffffff" stop-opacity="1"></stop><stop offset="83.33333333333334%" stop-color="#e5e2ff" stop-opacity="1"></stop></linearGradient></defs><defs><linearGradient id="grad2_0" x1="0%" y1="0%" x2="60%" y2="100%"><stop offset="16.666666666666664%" stop-color="#155dfc" stop-opacity="1"></stop><stop offset="83.33333333333334%" stop-color="#155dfc" stop-opacity="1"></stop></linearGradient></defs><defs><linearGradient id="grad2_1" x1="0%" y1="0%" x2="60%" y2="100%"><stop offset="16.666666666666664%" stop-color="#6475fe" stop-opacity="1"></stop><stop offset="83.33333333333334%" stop-color="#155dfc" stop-opacity="1"></stop></linearGradient></defs><defs><linearGradient id="grad2_2" x1="0%" y1="0%" x2="60%" y2="100%"><stop offset="16.666666666666664%" stop-color="#6475fe" stop-opacity="1"></stop><stop offset="83.33333333333334%" stop-color="#8c8fff" stop-opacity="1"></stop></linearGradient></defs><defs><linearGradient id="grad2_3" x1="0%" y1="0%" x2="60%" y2="100%"><stop offset="16.666666666666664%" stop-color="#adaaff" stop-opacity="1"></stop><stop offset="83.33333333333334%" stop-color="#8c8fff" stop-opacity="1"></stop></linearGradient></defs><defs><linearGradient id="grad2_4" x1="0%" y1="0%" x2="60%" y2="100%"><stop offset="16.666666666666664%" stop-color="#adaaff" stop-opacity="1"></stop><stop offset="83.33333333333334%" stop-color="#cac6ff" stop-opacity="1"></stop></linearGradient></defs><defs><linearGradient id="grad2_5" x1="0%" y1="0%" x2="60%" y2="100%"><stop offset="16.666666666666664%" stop-color="#e5e2ff" stop-opacity="1"></stop><stop offset="83.33333333333334%" stop-color="#cac6ff" stop-opacity="1"></stop></linearGradient></defs><defs><linearGradient id="grad2_6" x1="0%" y1="0%" x2="60%" y2="100%"><stop offset="16.666666666666664%" stop-color="#e5e2ff" stop-opacity="1"></stop><stop offset="83.33333333333334%" stop-color="#ffffff" stop-opacity="1"></stop></linearGradient></defs><g transform="translate(1800, 0)"><path d="M0 944.6C-127 936.9 -253.9 929.2 -361.5 872.7C-469 816.2 -557.2 710.9 -606 606C-654.8 501.1 -664.3 396.7 -714.2 295.8C-764 194.9 -854.3 97.4 -944.6 0L0 0Z" fill="#f2f0ff"></path><path d="M0 809.7C-108.8 803.1 -217.7 796.5 -309.8 748C-402 699.6 -477.6 609.3 -519.4 519.4C-561.3 429.5 -569.4 340.1 -612.1 253.6C-654.9 167.1 -732.3 83.5 -809.7 0L0 0Z" fill="#d8d4ff"></path><path d="M0 674.7C-90.7 669.2 -181.4 663.7 -258.2 623.4C-335 583 -398 507.8 -432.9 432.9C-467.7 357.9 -474.5 283.4 -510.1 211.3C-545.7 139.2 -610.2 69.6 -674.7 0L0 0Z" fill="#bcb8ff"></path><path d="M0 539.8C-72.6 535.4 -145.1 531 -206.6 498.7C-268 466.4 -318.4 406.2 -346.3 346.3C-374.2 286.4 -379.6 226.7 -408.1 169C-436.6 111.4 -488.2 55.7 -539.8 0L0 0Z" fill="#9d9dff"></path><path d="M0 404.8C-54.4 401.5 -108.8 398.2 -154.9 374C-201 349.8 -238.8 304.7 -259.7 259.7C-280.6 214.8 -284.7 170 -306.1 126.8C-327.4 83.5 -366.1 41.8 -404.8 0L0 0Z" fill="#7982fe"></path><path d="M0 269.9C-36.3 267.7 -72.6 265.5 -103.3 249.3C-134 233.2 -159.2 203.1 -173.1 173.1C-187.1 143.2 -189.8 113.4 -204 84.5C-218.3 55.7 -244.1 27.8 -269.9 0L0 0Z" fill="#4869fd"></path><path d="M0 134.9C-18.1 133.8 -36.3 132.7 -51.6 124.7C-67 116.6 -79.6 101.6 -86.6 86.6C-93.5 71.6 -94.9 56.7 -102 42.3C-109.1 27.8 -122 13.9 -134.9 0L0 0Z" fill="#155dfc"></path></g><g transform="translate(0, 1080)"><path d="M0 -944.6C120.7 -929.3 241.3 -914.1 361.5 -872.7C481.7 -831.4 601.3 -763.9 665.4 -665.4C729.4 -566.8 737.9 -437.2 775.1 -321.1C812.4 -205 878.5 -102.5 944.6 0L0 0Z" fill="#f2f0ff"></path><path d="M0 -809.7C103.4 -796.6 206.8 -783.5 309.8 -748C412.8 -712.6 515.4 -654.8 570.3 -570.3C625.2 -485.9 632.5 -374.7 664.4 -275.2C696.3 -175.7 753 -87.9 809.7 0L0 0Z" fill="#d8d4ff"></path><path d="M0 -674.7C86.2 -663.8 172.4 -652.9 258.2 -623.4C344 -593.8 429.5 -545.7 475.3 -475.3C521 -404.9 527 -312.3 553.7 -229.3C580.3 -146.4 627.5 -73.2 674.7 0L0 0Z" fill="#bcb8ff"></path><path d="M0 -539.8C68.9 -531 137.9 -522.3 206.6 -498.7C275.2 -475.1 343.6 -436.5 380.2 -380.2C416.8 -323.9 421.6 -249.8 442.9 -183.5C464.2 -117.1 502 -58.6 539.8 0L0 0Z" fill="#9d9dff"></path><path d="M0 -404.8C51.7 -398.3 103.4 -391.7 154.9 -374C206.4 -356.3 257.7 -327.4 285.2 -285.2C312.6 -242.9 316.2 -187.4 332.2 -137.6C348.2 -87.9 376.5 -43.9 404.8 0L0 0Z" fill="#7982fe"></path><path d="M0 -269.9C34.5 -265.5 68.9 -261.2 103.3 -249.3C137.6 -237.5 171.8 -218.3 190.1 -190.1C208.4 -162 210.8 -124.9 221.5 -91.7C232.1 -58.6 251 -29.3 269.9 0L0 0Z" fill="#4869fd"></path><path d="M0 -134.9C17.2 -132.8 34.5 -130.6 51.6 -124.7C68.8 -118.8 85.9 -109.1 95.1 -95.1C104.2 -81 105.4 -62.5 110.7 -45.9C116.1 -29.3 125.5 -14.6 134.9 0L0 0Z" fill="#155dfc"></path></g></svg>