<svg id="visual" viewBox="0 0 1440 1080" width="1440" height="1080" xmlns="http://www.w3.org/2000/svg" xmlns:xlink="http://www.w3.org/1999/xlink" version="1.1"><rect x="0" y="0" width="1440" height="1080" fill="#ffffff"></rect><defs><linearGradient id="grad1_0" x1="25%" y1="0%" x2="100%" y2="100%"><stop offset="23.333333333333336%" stop-color="#155dfc" stop-opacity="1"></stop><stop offset="76.66666666666666%" stop-color="#155dfc" stop-opacity="1"></stop></linearGradient></defs><defs><linearGradient id="grad1_1" x1="25%" y1="0%" x2="100%" y2="100%"><stop offset="23.333333333333336%" stop-color="#155dfc" stop-opacity="1"></stop><stop offset="76.66666666666666%" stop-color="#8c8fff" stop-opacity="1"></stop></linearGradient></defs><defs><linearGradient id="grad1_2" x1="25%" y1="0%" x2="100%" y2="100%"><stop offset="23.333333333333336%" stop-color="#cac6ff" stop-opacity="1"></stop><stop offset="76.66666666666666%" stop-color="#8c8fff" stop-opacity="1"></stop></linearGradient></defs><defs><linearGradient id="grad1_3" x1="25%" y1="0%" x2="100%" y2="100%"><stop offset="23.333333333333336%" stop-color="#cac6ff" stop-opacity="1"></stop><stop offset="76.66666666666666%" stop-color="#ffffff" stop-opacity="1"></stop></linearGradient></defs><defs><linearGradient id="grad2_0" x1="0%" y1="0%" x2="75%" y2="100%"><stop offset="23.333333333333336%" stop-color="#155dfc" stop-opacity="1"></stop><stop offset="76.66666666666666%" stop-color="#155dfc" stop-opacity="1"></stop></linearGradient></defs><defs><linearGradient id="grad2_1" x1="0%" y1="0%" x2="75%" y2="100%"><stop offset="23.333333333333336%" stop-color="#8c8fff" stop-opacity="1"></stop><stop offset="76.66666666666666%" stop-color="#155dfc" stop-opacity="1"></stop></linearGradient></defs><defs><linearGradient id="grad2_2" x1="0%" y1="0%" x2="75%" y2="100%"><stop offset="23.333333333333336%" stop-color="#8c8fff" stop-opacity="1"></stop><stop offset="76.66666666666666%" stop-color="#cac6ff" stop-opacity="1"></stop></linearGradient></defs><defs><linearGradient id="grad2_3" x1="0%" y1="0%" x2="75%" y2="100%"><stop offset="23.333333333333336%" stop-color="#ffffff" stop-opacity="1"></stop><stop offset="76.66666666666666%" stop-color="#cac6ff" stop-opacity="1"></stop></linearGradient></defs><g transform="translate(1440, 0)"><path d="M0 810C-105.8 798.9 -211.5 787.8 -310 748.3C-408.4 708.9 -499.6 641 -557.9 557.9C-616.2 474.8 -641.6 376.4 -678.1 280.9C-714.7 185.4 -762.3 92.7 -810 0L0 0Z" fill="#e5e2ff"></path><path d="M0 607.5C-79.3 599.2 -158.6 590.9 -232.5 561.3C-306.3 531.7 -374.7 480.8 -418.4 418.4C-462.1 356.1 -481.2 282.3 -508.6 210.7C-536 139 -571.7 69.5 -607.5 0L0 0Z" fill="#adaaff"></path><path d="M0 405C-52.9 399.5 -105.8 393.9 -155 374.2C-204.2 354.4 -249.8 320.5 -279 279C-308.1 237.4 -320.8 188.2 -339.1 140.4C-357.3 92.7 -381.2 46.3 -405 0L0 0Z" fill="#6475fe"></path><path d="M0 202.5C-26.4 199.7 -52.9 197 -77.5 187.1C-102.1 177.2 -124.9 160.3 -139.5 139.5C-154 118.7 -160.4 94.1 -169.5 70.2C-178.7 46.3 -190.6 23.2 -202.5 0L0 0Z" fill="#155dfc"></path></g><g transform="translate(0, 1080)"><path d="M0 -810C101.3 -792.9 202.5 -775.9 307.3 -741.9C412 -707.9 520.3 -656.9 572.8 -572.8C625.2 -488.6 622 -371.2 652.3 -270.2C682.5 -169.2 746.3 -84.6 810 0L0 0Z" fill="#e5e2ff"></path><path d="M0 -607.5C76 -594.7 151.9 -581.9 230.5 -556.4C309 -530.9 390.2 -492.7 429.6 -429.6C468.9 -366.4 466.5 -278.4 489.2 -202.6C511.9 -126.9 559.7 -63.4 607.5 0L0 0Z" fill="#adaaff"></path><path d="M0 -405C50.6 -396.5 101.3 -387.9 153.6 -370.9C206 -353.9 260.1 -328.5 286.4 -286.4C312.6 -244.3 311 -185.6 326.1 -135.1C341.3 -84.6 373.1 -42.3 405 0L0 0Z" fill="#6475fe"></path><path d="M0 -202.5C25.3 -198.2 50.6 -194 76.8 -185.5C103 -177 130.1 -164.2 143.2 -143.2C156.3 -122.1 155.5 -92.8 163.1 -67.5C170.6 -42.3 186.6 -21.1 202.5 0L0 0Z" fill="#155dfc"></path></g></svg>