<svg id="visual" viewBox="0 0 1980 1080" width="1980" height="1080" xmlns="http://www.w3.org/2000/svg" xmlns:xlink="http://www.w3.org/1999/xlink" version="1.1"><rect x="0" y="0" width="1980" height="1080" fill="#ffffff"></rect><defs><linearGradient id="grad1_0" x1="45.5%" y1="0%" x2="100%" y2="100%"><stop offset="13.333333333333334%" stop-color="#4985de" stop-opacity="1"></stop><stop offset="86.66666666666667%" stop-color="#4985de" stop-opacity="1"></stop></linearGradient></defs><defs><linearGradient id="grad1_1" x1="45.5%" y1="0%" x2="100%" y2="100%"><stop offset="13.333333333333334%" stop-color="#4985de" stop-opacity="1"></stop><stop offset="86.66666666666667%" stop-color="#aec0ef" stop-opacity="1"></stop></linearGradient></defs><defs><linearGradient id="grad1_2" x1="45.5%" y1="0%" x2="100%" y2="100%"><stop offset="13.333333333333334%" stop-color="#ffffff" stop-opacity="1"></stop><stop offset="86.66666666666667%" stop-color="#aec0ef" stop-opacity="1"></stop></linearGradient></defs><defs><linearGradient id="grad2_0" x1="0%" y1="0%" x2="54.5%" y2="100%"><stop offset="13.333333333333334%" stop-color="#4985de" stop-opacity="1"></stop><stop offset="86.66666666666667%" stop-color="#4985de" stop-opacity="1"></stop></linearGradient></defs><defs><linearGradient id="grad2_1" x1="0%" y1="0%" x2="54.5%" y2="100%"><stop offset="13.333333333333334%" stop-color="#aec0ef" stop-opacity="1"></stop><stop offset="86.66666666666667%" stop-color="#4985de" stop-opacity="1"></stop></linearGradient></defs><defs><linearGradient id="grad2_2" x1="0%" y1="0%" x2="54.5%" y2="100%"><stop offset="13.333333333333334%" stop-color="#aec0ef" stop-opacity="1"></stop><stop offset="86.66666666666667%" stop-color="#ffffff" stop-opacity="1"></stop></linearGradient></defs><g transform="translate(1980, 0)"><path d="M0 972C-164 937.9 -328.1 903.8 -477.5 827.1C-626.9 750.3 -761.8 630.9 -841.8 486C-921.8 341.1 -946.9 170.5 -972 0L0 0Z" fill="#d7dff7"></path><path d="M0 648C-109.4 625.3 -218.7 602.5 -318.3 551.4C-418 500.2 -507.9 420.6 -561.2 324C-614.5 227.4 -631.3 113.7 -648 0L0 0Z" fill="#81a2e7"></path><path d="M0 324C-54.7 312.6 -109.4 301.3 -159.2 275.7C-209 250.1 -253.9 210.3 -280.6 162C-307.3 113.7 -315.6 56.8 -324 0L0 0Z" fill="#4985de"></path></g><g transform="translate(0, 1080)"><path d="M0 -972C170.3 -946.7 340.6 -921.5 486 -841.8C631.4 -762.1 751.9 -627.9 828.8 -478.5C905.6 -329.1 938.8 -164.6 972 0L0 0Z" fill="#d7dff7"></path><path d="M0 -648C113.5 -631.2 227.1 -614.3 324 -561.2C420.9 -508 501.3 -418.6 552.5 -319C603.8 -219.4 625.9 -109.7 648 0L0 0Z" fill="#81a2e7"></path><path d="M0 -324C56.8 -315.6 113.5 -307.2 162 -280.6C210.5 -254 250.6 -209.3 276.3 -159.5C301.9 -109.7 312.9 -54.9 324 0L0 0Z" fill="#4985de"></path></g></svg>