<svg version="1.1" id="Layer_1" xmlns:x="ns_extend;" xmlns:i="ns_ai;" xmlns:graph="ns_graphs;" xmlns="http://www.w3.org/2000/svg" xmlns:xlink="http://www.w3.org/1999/xlink" x="0px" y="0px" viewBox="0 0 232.4 43" style="enable-background:new 0 0 232.4 43;" xml:space="preserve">
 <style type="text/css">
  .st0{fill:#EB0029;}
 </style>
 <metadata>
  <sfw xmlns="ns_sfw;">
   <slices>
   </slices>
   <sliceSourceBounds bottomLeftOrigin="true" height="43" width="232.4" x="-16.2" y="-2">
   </sliceSourceBounds>
  </sfw>
 </metadata>
 <g>
  <g>
   <g>
    <path class="st0" d="M11.1,24c0.4,1.9,1.4,3.6,2.8,5c1.4,1.4,3.1,2.3,5,2.8c1.5,0.4,3,0.4,4.5,0.1c1.5-0.3,2.9-0.9,4.1-1.8
				c1.2-0.9,2.2-2.1,3-3.4c0.7-1.3,1.2-2.8,1.3-4.4c0-0.1,0-0.2,0-0.3c0-0.1-0.1-0.2-0.1-0.2c-0.1-0.1-0.1-0.1-0.2-0.2
				c-0.1,0-0.2-0.1-0.3-0.1h-4.3c-0.2,0-0.3,0.1-0.4,0.2c-0.1,0.1-0.2,0.3-0.2,0.4c-0.1,1.3-0.8,2.5-1.8,3.3c-1,0.8-2.3,1.2-3.6,1
				c-1.3-0.1-2.4-0.8-3.2-1.8c-0.8-1-1.2-2.3-1-3.6c0.2-1.2,0.8-2.3,1.7-3.1c0.9-0.8,2.1-1.3,3.3-1.3h20.4c0.2,0,0.3-0.1,0.5-0.2
				c0.1-0.1,0.2-0.3,0.2-0.5v-4.3c0-0.2-0.1-0.3-0.2-0.5c-0.1-0.1-0.3-0.2-0.5-0.2H21.3c-1.6,0-3.2,0.4-4.6,1.1
				c-1.4,0.7-2.7,1.7-3.7,3c-1,1.3-1.7,2.7-2,4.3C10.7,20.8,10.7,22.4,11.1,24z">
    </path>
    <path class="st0" d="M82.6,11.9c-1.5-0.7-3.1-1.1-4.7-1.1c-1.6,0-3.2,0.4-4.6,1.2c-1.2,0.7-2.2,1.6-2.9,2.8
				c-0.7-1.2-1.8-2.2-3-2.9c-1.5-0.8-3.1-1.2-4.8-1.1c-1.3,0-2.6,0.3-3.7,0.8c-0.9,0.4-1.7,0.9-2.4,1.6v-1.4c0-0.1,0-0.2,0-0.2
				c0-0.1-0.1-0.1-0.1-0.2c-0.1-0.1-0.1-0.1-0.2-0.1c-0.1,0-0.2,0-0.2,0H52c-0.1,0-0.2,0-0.2,0c-0.1,0-0.1,0.1-0.2,0.1
				c-0.1,0.1-0.1,0.1-0.1,0.2c0,0.1,0,0.2,0,0.2v21.2c0,0.2,0.1,0.3,0.2,0.4c0.1,0.1,0.3,0.2,0.4,0.2h3.9c0.2,0,0.3-0.1,0.4-0.2
				s0.2-0.3,0.2-0.4V21.1c-0.1-1.6,0.4-3.1,1.4-4.3c0.5-0.5,1.1-0.9,1.7-1.1c0.6-0.3,1.3-0.4,2-0.3c0.7,0,1.4,0.1,2,0.3
				c0.6,0.3,1.2,0.6,1.7,1.1c1,1.2,1.5,2.7,1.4,4.3v11.9c0,0.2,0.1,0.3,0.2,0.4c0.1,0.1,0.3,0.2,0.4,0.2h3.8c0.2,0,0.3-0.1,0.4-0.2
				s0.2-0.3,0.2-0.4V21.1c-0.1-1.6,0.4-3.1,1.4-4.3c0.5-0.5,1.1-0.9,1.7-1.1c0.6-0.3,1.3-0.4,2-0.3c0.7,0,1.4,0.1,2,0.3
				c0.6,0.3,1.2,0.6,1.7,1.1c1,1.2,1.5,2.7,1.4,4.3v11.9c0,0.2,0.1,0.3,0.2,0.4c0.1,0.1,0.3,0.2,0.4,0.2h3.8c0.2,0,0.3-0.1,0.4-0.2
				c0.1-0.1,0.2-0.3,0.2-0.4V20.4c0-1.8-0.4-3.6-1.2-5.2C85.1,13.8,84,12.6,82.6,11.9z">
    </path>
    <path class="st0" d="M113.1,11.1h-3.9c-0.2,0-0.3,0.1-0.4,0.2c-0.1,0.1-0.2,0.3-0.2,0.4v2.1c-0.9-1-2-1.8-3.3-2.3
				c-1.2-0.5-2.6-0.8-3.9-0.7c-1.9,0-3.7,0.5-5.3,1.5c-1.6,1-2.9,2.4-3.8,4c-0.9,1.8-1.4,3.9-1.4,6c0,2.1,0.4,4.2,1.4,6
				c0.9,1.7,2.2,3.1,3.8,4.2c1.5,0.9,3.2,1.4,4.9,1.5c1.7,0.1,3.4-0.3,5-1.1c1-0.5,1.9-1.2,2.7-2V33c0,0.2,0.1,0.3,0.2,0.4
				c0.1,0.1,0.3,0.2,0.4,0.2h3.9c0.2,0,0.3-0.1,0.4-0.2c0.1-0.1,0.2-0.3,0.2-0.4V11.7c0-0.1,0-0.2,0-0.2c0-0.1-0.1-0.1-0.1-0.2
				c-0.1-0.1-0.1-0.1-0.2-0.1C113.2,11.1,113.1,11.1,113.1,11.1z M107.7,26.1c-0.5,1-1.3,1.9-2.3,2.4c-0.9,0.5-2,0.8-3.1,0.8
				c-1.1,0-2.1-0.3-3.1-0.9c-1-0.6-1.8-1.5-2.3-2.5c-0.6-1.2-0.9-2.5-0.9-3.8c0-1.3,0.3-2.6,0.9-3.8c0.4-0.7,0.9-1.4,1.6-1.9
				c0.6-0.5,1.4-0.9,2.2-1.1c0.8-0.2,1.6-0.3,2.4-0.2c0.8,0.1,1.6,0.4,2.3,0.8c1,0.6,1.8,1.4,2.3,2.4c0.6,1.2,0.9,2.5,0.9,3.8
				C108.6,23.6,108.3,25,107.7,26.1z">
    </path>
    <path class="st0" d="M128.5,11.1h-4.7V6.3c0-0.1,0-0.2,0-0.2c0-0.1-0.1-0.1-0.1-0.2c-0.1-0.1-0.1-0.1-0.2-0.1c-0.1,0-0.1,0-0.2,0
				h-3.9c-0.1,0-0.2,0-0.2,0c-0.1,0-0.1,0.1-0.2,0.1c-0.1,0.1-0.1,0.1-0.1,0.2c0,0.1,0,0.2,0,0.2v20.9c0,2.2,0.6,3.9,1.7,4.9
				c1.4,1.1,3.1,1.6,4.8,1.5h3.2c0.2,0,0.3-0.1,0.4-0.2c0.1-0.1,0.2-0.3,0.2-0.4v-3.2c0-0.2-0.1-0.3-0.2-0.4
				c-0.1-0.1-0.3-0.2-0.4-0.2H126c-0.6,0.1-1.2-0.1-1.7-0.5c-0.2-0.2-0.3-0.5-0.4-0.7c-0.1-0.3-0.1-0.5-0.1-0.8V15.4h4.7
				c0.2,0,0.3-0.1,0.4-0.2c0.1-0.1,0.2-0.3,0.2-0.4v-3.1c0-0.2-0.1-0.3-0.2-0.4C128.8,11.2,128.6,11.1,128.5,11.1z">
    </path>
    <path class="st0" d="M153.8,11.1h-3.9c-0.2,0-0.3,0.1-0.4,0.2c-0.1,0.1-0.2,0.3-0.2,0.4v2.1c-0.9-1-2-1.8-3.3-2.3
				c-1.2-0.5-2.6-0.8-3.9-0.7c-1.9,0-3.7,0.5-5.3,1.5c-1.6,1-2.9,2.4-3.8,4c-0.9,1.8-1.4,3.9-1.4,6c0,2.1,0.4,4.2,1.4,6
				c0.9,1.7,2.2,3.1,3.8,4.2c1.5,0.9,3.2,1.4,4.9,1.5c1.7,0.1,3.4-0.3,5-1.1c1-0.5,1.9-1.2,2.7-2V33c0,0.2,0.1,0.3,0.2,0.4
				c0.1,0.1,0.3,0.2,0.4,0.2h3.9c0.2,0,0.3-0.1,0.4-0.2c0.1-0.1,0.2-0.3,0.2-0.4V11.7c0-0.1,0-0.2,0-0.2c0-0.1-0.1-0.1-0.1-0.2
				c-0.1-0.1-0.1-0.1-0.2-0.1C154,11.1,153.9,11.1,153.8,11.1z M148.4,26.1c-0.5,1-1.3,1.9-2.3,2.4c-0.9,0.5-2,0.8-3.1,0.8
				c-1.1,0-2.1-0.3-3.1-0.9c-1-0.6-1.8-1.5-2.3-2.5c-0.6-1.2-0.9-2.5-0.9-3.8c0-1.3,0.3-2.6,0.9-3.8c0.5-1,1.3-1.8,2.3-2.4
				c0.9-0.5,2-0.8,3.1-0.8c1.1,0,2.1,0.3,3.1,0.8c1,0.6,1.8,1.4,2.3,2.4c0.6,1.2,0.9,2.5,0.9,3.8C149.4,23.6,149.1,25,148.4,26.1z">
    </path>
    <path class="st0" d="M175.5,11.9c-1.4-0.8-3-1.1-4.6-1.1c-1.4,0-2.7,0.3-3.9,0.8c-0.9,0.4-1.8,0.9-2.5,1.7v-9
				c0-0.2-0.1-0.3-0.2-0.4c-0.1-0.1-0.3-0.2-0.4-0.2h-3.9c-0.2,0-0.3,0.1-0.4,0.2c-0.1,0.1-0.2,0.3-0.2,0.4V33c0,0.1,0,0.2,0,0.2
				c0,0.1,0.1,0.1,0.1,0.2c0.1,0.1,0.1,0.1,0.2,0.1c0.1,0,0.1,0,0.2,0h3.9c0.1,0,0.2,0,0.2,0c0.1,0,0.1-0.1,0.2-0.1
				c0.1-0.1,0.1-0.1,0.1-0.2c0-0.1,0-0.2,0-0.2V21.1c-0.1-1.6,0.4-3.1,1.4-4.3c0.5-0.5,1.1-0.9,1.7-1.1c0.6-0.3,1.3-0.4,2-0.3
				c0.7,0,1.4,0.1,2,0.3c0.6,0.3,1.2,0.6,1.7,1.1c1,1.2,1.5,2.7,1.4,4.3V33c0,0.1,0,0.2,0,0.2c0,0.1,0.1,0.1,0.1,0.2
				c0.1,0.1,0.1,0.1,0.2,0.1c0.1,0,0.1,0,0.2,0h3.8c0.1,0,0.2,0,0.2,0c0.1,0,0.1-0.1,0.2-0.1c0.1-0.1,0.1-0.1,0.1-0.2
				c0-0.1,0-0.2,0-0.2V20.4c0-1.8-0.3-3.6-1.2-5.2C178,13.8,176.9,12.6,175.5,11.9z">
    </path>
    <path class="st0" d="M205.9,11.1H202c-0.2,0-0.3,0.1-0.4,0.2c-0.1,0.1-0.2,0.3-0.2,0.4v2.1c-0.9-1-2-1.8-3.3-2.3
				c-1.2-0.5-2.6-0.8-3.9-0.7c-1.9,0-3.7,0.5-5.3,1.5c-1.6,1-2.9,2.4-3.8,4c-0.9,1.8-1.4,3.9-1.4,6c0,2.1,0.4,4.2,1.4,6
				c0.9,1.7,2.2,3.1,3.8,4.2c1.5,0.9,3.2,1.4,4.9,1.5c1.7,0.1,3.4-0.3,5-1.1c1-0.5,1.9-1.2,2.7-2V33c0,0.2,0.1,0.3,0.2,0.4
				c0.1,0.1,0.3,0.2,0.4,0.2h3.9c0.2,0,0.3-0.1,0.4-0.2c0.1-0.1,0.2-0.3,0.2-0.4V11.7c0-0.1,0-0.2,0-0.2c0-0.1-0.1-0.1-0.1-0.2
				c-0.1-0.1-0.1-0.1-0.2-0.1C206,11.1,205.9,11.1,205.9,11.1z M200.5,26.1c-0.5,1-1.3,1.9-2.3,2.4c-0.9,0.5-2,0.8-3.1,0.8
				c-1.1,0-2.1-0.3-3.1-0.9c-1-0.6-1.8-1.5-2.3-2.5c-0.6-1.2-0.9-2.5-0.9-3.8c0-1.3,0.3-2.6,0.9-3.8c0.5-1,1.3-1.8,2.3-2.4
				c0.9-0.5,2-0.8,3.1-0.8c1.1,0,2.1,0.3,3.1,0.8c1,0.6,1.8,1.4,2.3,2.4c0.6,1.2,0.9,2.5,0.9,3.8C201.4,23.6,201.1,25,200.5,26.1z">
    </path>
    <path class="st0" d="M222.2,10.8c-1.2,0-2.4,0.4-3.4,1c-0.8,0.5-1.6,1.1-2.2,1.9v-1.9c0-0.2-0.1-0.3-0.2-0.4
				c-0.1-0.1-0.3-0.2-0.4-0.2h-3.9c-0.2,0-0.3,0.1-0.4,0.2c-0.1,0.1-0.2,0.3-0.2,0.4V33c0,0.2,0.1,0.3,0.2,0.4
				c0.1,0.1,0.3,0.2,0.4,0.2h3.9c0.2,0,0.3-0.1,0.4-0.2c0.1-0.1,0.2-0.3,0.2-0.4V21.8c0-2.1,0.4-3.6,1.3-4.5c1-0.9,2.4-1.4,3.8-1.3
				h0.8c0.2,0,0.3-0.1,0.4-0.2c0.1-0.1,0.2-0.3,0.2-0.4v-3.8c0-0.1,0-0.2-0.1-0.3c0-0.1-0.1-0.2-0.2-0.3c-0.1-0.1-0.2-0.1-0.3-0.2
				C222.4,10.8,222.3,10.8,222.2,10.8L222.2,10.8z">
    </path>
    <path class="st0" d="M231.4,11.1h-3.9c-0.3,0-0.6,0.3-0.6,0.6V33c0,0.3,0.3,0.6,0.6,0.6h3.9c0.3,0,0.6-0.3,0.6-0.6V11.7
				C232,11.4,231.7,11.1,231.4,11.1z">
    </path>
    <path class="st0" d="M229.5,7.8c0.4,0,0.8-0.1,1.1-0.2c0.4-0.1,0.7-0.4,0.9-0.6c0.5-0.6,0.9-1.3,0.9-2.1s-0.3-1.6-0.9-2.1
				c-0.3-0.3-0.6-0.5-0.9-0.6c-0.4-0.1-0.7-0.2-1.1-0.2c-0.8,0-1.5,0.3-2.1,0.9c-0.6,0.6-0.9,1.3-0.9,2.1s0.3,1.6,0.9,2.1
				C228,7.5,228.7,7.8,229.5,7.8z">
    </path>
    <path class="st0" d="M38,34.8c0.2-0.3,0.4-0.5,0.6-0.8c0.2-0.3,0.3-0.5,0.5-0.8c0.2-0.3,0.4-0.6,0.6-0.9c0.2-0.3,0.3-0.6,0.4-0.8
				c0.2-0.3,0.3-0.6,0.5-0.9c0.1-0.3,0.3-0.6,0.4-0.9c0.1-0.3,0.3-0.7,0.4-1c0.1-0.3,0.2-0.6,0.3-0.9c0.1-0.3,0.2-0.7,0.3-1
				c0.1-0.3,0.1-0.7,0.2-1c0.1-0.4,0.1-0.7,0.2-1.1c0-0.3,0.1-0.7,0.1-1c0-0.3,0.1-0.5,0.1-0.8c0,0,0-0.1,0-0.1c0-0.2,0-0.3,0-0.5
				c0-0.1,0-0.2,0-0.3c0-0.1-0.1-0.2-0.1-0.2c-0.1-0.1-0.1-0.1-0.2-0.2c-0.1,0-0.2-0.1-0.3-0.1h-4.3c-0.2,0-0.3,0.1-0.5,0.2
				C37,21.9,37,22,37,22.2c0,0.4-0.1,0.7-0.1,1c0,0.3-0.1,0.6-0.1,0.9c0,0.3-0.1,0.5-0.2,0.8c-0.1,0.3-0.1,0.6-0.2,0.9
				c-0.1,0.3-0.2,0.5-0.2,0.8c-0.1,0.3-0.2,0.6-0.3,0.8c-0.1,0.3-0.2,0.5-0.3,0.7c-0.1,0.2-0.2,0.5-0.4,0.7
				c-0.1,0.3-0.3,0.5-0.4,0.7c-0.1,0.2-0.3,0.4-0.4,0.6c-0.2,0.3-0.3,0.5-0.5,0.7c-0.1,0.2-0.3,0.4-0.4,0.5
				c-0.2,0.3-0.4,0.5-0.6,0.7c-0.1,0.1-0.3,0.3-0.4,0.4c-0.3,0.3-0.5,0.5-0.8,0.7c-0.1,0.1-0.2,0.2-0.4,0.3
				c-0.3,0.3-0.6,0.5-0.9,0.7c-0.1,0-0.1,0.1-0.2,0.1c-3.2,2.1-7,3.1-10.7,2.6v0c-0.7-0.1-1.5-0.2-2.2-0.4c-2.6-0.7-5-2.1-6.9-4
				c-1.9-1.9-3.3-4.3-4-7c-0.6-2.3-0.7-4.7-0.3-7.1s1.4-4.6,2.8-6.5c1.4-1.9,3.2-3.5,5.3-4.6c2.1-1.1,4.4-1.7,6.8-1.8
				c0.1,0,0.3-0.1,0.4-0.2s0.2-0.2,0.2-0.4V0.6c0-0.1,0-0.1,0-0.2c0-0.1-0.1-0.1-0.1-0.2C21.1,0.1,21,0.1,21,0c-0.1,0-0.1,0-0.2,0
				c-2.4,0.1-4.8,0.5-7.1,1.4c-2.8,1-5.4,2.6-7.5,4.7C4,8.2,2.4,10.8,1.4,13.6C-4,28.7,7,43,21.3,43c0.7,0,1.4,0,2.1-0.1
				c0.2,0,0.5-0.1,0.7-0.1c0.5-0.1,0.9-0.1,1.4-0.2c0.3-0.1,0.5-0.1,0.8-0.2c0.4-0.1,0.8-0.2,1.2-0.3c0.3-0.1,0.5-0.2,0.8-0.3
				c0.4-0.1,0.7-0.2,1.1-0.4c0.3-0.1,0.5-0.3,0.8-0.4c0.3-0.2,0.7-0.3,1-0.5c0.3-0.1,0.5-0.3,0.8-0.5c0.3-0.2,0.6-0.4,0.9-0.6
				c0.3-0.2,0.5-0.4,0.8-0.5c0.3-0.2,0.6-0.4,0.9-0.6c0.2-0.2,0.5-0.4,0.7-0.6c0.3-0.2,0.5-0.5,0.8-0.7c0.2-0.2,0.4-0.4,0.6-0.7
				c0.2-0.3,0.5-0.5,0.7-0.8C37.6,35.3,37.8,35.1,38,34.8z">
    </path>
   </g>
  </g>
 </g>
</svg>