<svg id="visual" viewBox="0 0 960 540" width="960" height="540" xmlns="http://www.w3.org/2000/svg" xmlns:xlink="http://www.w3.org/1999/xlink" version="1.1"><path d="M0 77L14.5 77C29 77 58 77 87.2 75.2C116.3 73.3 145.7 69.7 174.8 65.2C204 60.7 233 55.3 262 55.3C291 55.3 320 60.7 349 66C378 71.3 407 76.7 436.2 75.7C465.3 74.7 494.7 67.3 523.8 65.5C553 63.7 582 67.3 611 69.2C640 71 669 71 698 69.2C727 67.3 756 63.7 785.2 63.7C814.3 63.7 843.7 67.3 872.8 67.3C902 67.3 931 63.7 945.5 61.8L960 60L960 0L945.5 0C931 0 902 0 872.8 0C843.7 0 814.3 0 785.2 0C756 0 727 0 698 0C669 0 640 0 611 0C582 0 553 0 523.8 0C494.7 0 465.3 0 436.2 0C407 0 378 0 349 0C320 0 291 0 262 0C233 0 204 0 174.8 0C145.7 0 116.3 0 87.2 0C58 0 29 0 14.5 0L0 0Z" fill="#6198ff"></path><path d="M0 185L14.5 189.5C29 194 58 203 87.2 221C116.3 239 145.7 266 174.8 260.5C204 255 233 217 262 202.5C291 188 320 197 349 201.5C378 206 407 206 436.2 200.7C465.3 195.3 494.7 184.7 523.8 185.7C553 186.7 582 199.3 611 220C640 240.7 669 269.3 698 269.3C727 269.3 756 240.7 785.2 233.5C814.3 226.3 843.7 240.7 872.8 254.2C902 267.7 931 280.3 945.5 286.7L960 293L960 58L945.5 59.8C931 61.7 902 65.3 872.8 65.3C843.7 65.3 814.3 61.7 785.2 61.7C756 61.7 727 65.3 698 67.2C669 69 640 69 611 67.2C582 65.3 553 61.7 523.8 63.5C494.7 65.3 465.3 72.7 436.2 73.7C407 74.7 378 69.3 349 64C320 58.7 291 53.3 262 53.3C233 53.3 204 58.7 174.8 63.2C145.7 67.7 116.3 71.3 87.2 73.2C58 75 29 75 14.5 75L0 75Z" fill="#3c80ff"></path><path d="M0 330L14.5 325.5C29 321 58 312 87.2 322.8C116.3 333.7 145.7 364.3 174.8 353.7C204 343 233 291 262 280.2C291 269.3 320 299.7 349 306.8C378 314 407 298 436.2 293.5C465.3 289 494.7 296 523.8 305.8C553 315.7 582 328.3 611 340.2C640 352 669 363 698 361.2C727 359.3 756 344.7 785.2 339.2C814.3 333.7 843.7 337.3 872.8 346.3C902 355.3 931 369.7 945.5 376.8L960 384L960 291L945.5 284.7C931 278.3 902 265.7 872.8 252.2C843.7 238.7 814.3 224.3 785.2 231.5C756 238.7 727 267.3 698 267.3C669 267.3 640 238.7 611 218C582 197.3 553 184.7 523.8 183.7C494.7 182.7 465.3 193.3 436.2 198.7C407 204 378 204 349 199.5C320 195 291 186 262 200.5C233 215 204 253 174.8 258.5C145.7 264 116.3 237 87.2 219C58 201 29 192 14.5 187.5L0 183Z" fill="#0066ff"></path><path d="M0 492L14.5 488.5C29 485 58 478 87.2 474.5C116.3 471 145.7 471 174.8 464.7C204 458.3 233 445.7 262 439.3C291 433 320 433 349 437.5C378 442 407 451 436.2 450.2C465.3 449.3 494.7 438.7 523.8 444C553 449.3 582 470.7 611 476C640 481.3 669 470.7 698 472.5C727 474.3 756 488.7 785.2 491.3C814.3 494 843.7 485 872.8 480.5C902 476 931 476 945.5 476L960 476L960 382L945.5 374.8C931 367.7 902 353.3 872.8 344.3C843.7 335.3 814.3 331.7 785.2 337.2C756 342.7 727 357.3 698 359.2C669 361 640 350 611 338.2C582 326.3 553 313.7 523.8 303.8C494.7 294 465.3 287 436.2 291.5C407 296 378 312 349 304.8C320 297.7 291 267.3 262 278.2C233 289 204 341 174.8 351.7C145.7 362.3 116.3 331.7 87.2 320.8C58 310 29 319 14.5 323.5L0 328Z" fill="#0059dd"></path><path d="M0 541L14.5 541C29 541 58 541 87.2 541C116.3 541 145.7 541 174.8 541C204 541 233 541 262 541C291 541 320 541 349 541C378 541 407 541 436.2 541C465.3 541 494.7 541 523.8 541C553 541 582 541 611 541C640 541 669 541 698 541C727 541 756 541 785.2 541C814.3 541 843.7 541 872.8 541C902 541 931 541 945.5 541L960 541L960 474L945.5 474C931 474 902 474 872.8 478.5C843.7 483 814.3 492 785.2 489.3C756 486.7 727 472.3 698 470.5C669 468.7 640 479.3 611 474C582 468.7 553 447.3 523.8 442C494.7 436.7 465.3 447.3 436.2 448.2C407 449 378 440 349 435.5C320 431 291 431 262 437.3C233 443.7 204 456.3 174.8 462.7C145.7 469 116.3 469 87.2 472.5C58 476 29 483 14.5 486.5L0 490Z" fill="#004cbb"></path></svg>